<svg xmlns="http://www.w3.org/2000/svg" xmlns:xlink="http://www.w3.org/1999/xlink" width="500" zoomAndPan="magnify" viewBox="0 0 375 374.999991" height="500" preserveAspectRatio="xMidYMid meet" version="1.0"><defs><g/><clipPath id="446701b602"><path d="M 112.5 117.023438 L 180 117.023438 L 180 184 L 112.5 184 Z M 112.5 117.023438 " clip-rule="nonzero"/></clipPath><clipPath id="b25fe5d1e3"><path d="M 195.019531 117.03125 L 262.496094 117.03125 L 262.496094 183.820312 L 195.019531 183.820312 Z M 195.019531 117.03125 " clip-rule="nonzero"/></clipPath><clipPath id="6d6b27d30f"><path d="M 153.546875 168.308594 L 221.453125 168.308594 L 221.453125 216.761719 L 153.546875 216.761719 Z M 153.546875 168.308594 " clip-rule="nonzero"/></clipPath></defs><rect x="-37.5" width="450" fill="#ffffff" y="-37.499999" height="449.999989" fill-opacity="1"/><rect x="-37.5" width="450" fill="#ffffff" y="-37.499999" height="449.999989" fill-opacity="1"/><rect x="-37.5" width="450" fill="#021f70" y="-37.499999" height="449.999989" fill-opacity="1"/><g clip-path="url(#446701b602)"><path fill="#0092d4" d="M 144.261719 119.796875 C 136.683594 119.796875 129.648438 122.332031 124.503906 126.953125 C 129.730469 121.269531 137.511719 118.117188 145.964844 118.117188 C 157.136719 118.117188 166.574219 123.25 171.582031 131.996094 C 175.046875 138.082031 176.007812 143.027344 176.007812 154.246094 L 176.007812 159.441406 L 174.304688 159.441406 L 174.304688 155.925781 C 174.304688 144.707031 173.34375 139.765625 169.875 133.679688 C 164.871094 124.933594 155.433594 119.796875 144.261719 119.796875 Z M 133.878906 144.125 C 133.132812 146.695312 132.882812 153.214844 132.882812 163.6875 L 132.882812 177.773438 L 130.679688 177.773438 L 130.679688 165.4375 C 130.679688 154.964844 130.929688 148.441406 131.675781 145.875 C 132.628906 142.75 134.464844 140.332031 136.992188 138.777344 C 135.585938 140.203125 134.527344 142 133.878906 144.125 Z M 153.59375 162.222656 L 153.59375 162.652344 C 153.59375 164.1875 154.835938 165.433594 156.371094 165.433594 L 177.097656 165.433594 C 178.628906 165.433594 179.871094 164.1875 179.871094 162.652344 L 179.871094 162.222656 C 179.871094 160.6875 178.628906 159.441406 177.097656 159.441406 L 176.96875 159.441406 L 176.96875 154.578125 C 176.96875 142.917969 175.984375 137.78125 172.433594 131.457031 C 167.308594 122.367188 157.652344 117.03125 146.21875 117.03125 C 136.957031 117.03125 128.480469 120.785156 123.160156 127.503906 C 116.65625 135.410156 115.273438 141.929688 115.273438 162.679688 L 115.273438 177.792969 C 113.742188 177.792969 112.5 179.039062 112.5 180.578125 L 112.5 181.003906 C 112.5 182.542969 113.742188 183.789062 115.273438 183.789062 L 136 183.789062 C 137.535156 183.789062 138.777344 182.542969 138.777344 181.003906 L 138.777344 180.578125 C 138.777344 179.039062 137.535156 177.792969 136 177.792969 L 134.984375 177.792969 L 134.984375 164.0625 C 134.984375 153.589844 135.183594 147.066406 135.773438 144.5 C 137.152344 138.769531 140.898438 135.410156 146.023438 135.410156 C 151.738281 135.410156 155.878906 139.558594 156.667969 145.882812 C 156.835938 148.585938 157.003906 153.3125 157.050781 159.441406 L 156.371094 159.441406 C 154.835938 159.441406 153.59375 160.6875 153.59375 162.222656 " fill-opacity="1" fill-rule="nonzero"/></g><g clip-path="url(#b25fe5d1e3)"><path fill="#0092d4" d="M 230.734375 119.796875 C 219.566406 119.796875 210.128906 124.933594 205.121094 133.679688 C 201.65625 139.765625 200.691406 144.707031 200.691406 155.925781 L 200.691406 159.441406 L 198.988281 159.441406 L 198.988281 154.246094 C 198.988281 143.027344 199.953125 138.082031 203.417969 131.996094 C 208.425781 123.25 217.863281 118.117188 229.03125 118.117188 C 237.484375 118.117188 245.265625 121.269531 250.492188 126.953125 C 245.351562 122.332031 238.316406 119.796875 230.734375 119.796875 Z M 244.316406 177.773438 L 242.113281 177.773438 L 242.113281 163.6875 C 242.113281 153.214844 241.867188 146.695312 241.117188 144.125 C 240.472656 142 239.414062 140.203125 238.007812 138.777344 C 240.53125 140.332031 242.371094 142.75 243.320312 145.875 C 244.066406 148.441406 244.316406 154.964844 244.316406 165.4375 Z M 259.722656 177.792969 L 259.722656 162.679688 C 259.722656 141.929688 258.34375 135.410156 251.839844 127.503906 C 246.519531 120.785156 238.042969 117.03125 228.777344 117.03125 C 217.347656 117.03125 207.6875 122.367188 202.5625 131.457031 C 199.015625 137.78125 198.03125 142.917969 198.03125 154.578125 L 198.03125 159.441406 L 197.902344 159.441406 C 196.371094 159.441406 195.128906 160.6875 195.128906 162.222656 L 195.128906 162.652344 C 195.128906 164.1875 196.371094 165.433594 197.902344 165.433594 L 218.628906 165.433594 C 220.160156 165.433594 221.402344 164.1875 221.402344 162.652344 L 221.402344 162.222656 C 221.402344 160.6875 220.160156 159.441406 218.628906 159.441406 L 217.949219 159.441406 C 217.996094 153.3125 218.164062 148.585938 218.332031 145.882812 C 219.121094 139.558594 223.257812 135.410156 228.976562 135.410156 C 234.101562 135.410156 237.84375 138.769531 239.222656 144.5 C 239.816406 147.066406 240.011719 153.589844 240.011719 164.0625 L 240.011719 177.792969 L 238.996094 177.792969 C 237.464844 177.792969 236.222656 179.039062 236.222656 180.578125 L 236.222656 181.003906 C 236.222656 182.542969 237.464844 183.789062 238.996094 183.789062 L 259.722656 183.789062 C 261.257812 183.789062 262.5 182.542969 262.5 181.003906 L 262.5 180.578125 C 262.5 179.039062 261.257812 177.792969 259.722656 177.792969 " fill-opacity="1" fill-rule="nonzero"/></g><g clip-path="url(#6d6b27d30f)"><path fill="#0092d4" d="M 201.789062 187.917969 C 200.839844 191.042969 199 193.457031 196.476562 195.011719 C 197.878906 193.589844 198.9375 191.792969 199.585938 189.664062 C 200.226562 187.464844 200.5 182.359375 200.566406 174.351562 L 202.75 174.351562 C 202.660156 181.355469 202.382812 185.882812 201.789062 187.917969 Z M 218.628906 168.355469 L 197.902344 168.355469 C 196.371094 168.355469 195.128906 169.601562 195.128906 171.136719 L 195.128906 171.566406 C 195.128906 173.105469 196.371094 174.351562 197.902344 174.351562 L 198.464844 174.351562 C 198.410156 182.144531 198.191406 187.121094 197.691406 189.292969 C 196.3125 195.023438 192.570312 198.382812 187.441406 198.382812 C 181.726562 198.382812 177.585938 194.234375 176.800781 187.910156 C 176.632812 185.207031 176.460938 180.480469 176.417969 174.351562 L 177.097656 174.351562 C 178.628906 174.351562 179.871094 173.105469 179.871094 171.566406 L 179.871094 171.136719 C 179.871094 169.601562 178.628906 168.355469 177.097656 168.355469 L 156.371094 168.355469 C 154.839844 168.355469 153.597656 169.601562 153.597656 171.136719 L 153.597656 171.566406 C 153.597656 173.105469 154.839844 174.351562 156.371094 174.351562 L 156.496094 174.351562 L 156.496094 179.214844 C 156.496094 190.875 157.480469 196.011719 161.03125 202.335938 C 166.15625 211.421875 175.8125 216.761719 187.246094 216.761719 C 196.511719 216.761719 204.984375 213.003906 210.304688 206.289062 C 216.460938 198.808594 218.027344 192.570312 218.179688 174.351562 L 218.628906 174.351562 C 220.160156 174.351562 221.402344 173.105469 221.402344 171.566406 L 221.402344 171.136719 C 221.402344 169.601562 220.160156 168.355469 218.628906 168.355469 " fill-opacity="1" fill-rule="nonzero"/></g><g fill="#ffffff" fill-opacity="1"><g transform="translate(98.261717, 250.42116)"><g><path d="M 24.34375 -22.578125 L 24.34375 0 L 19.109375 0 L 19.109375 -13.53125 L 15.265625 -4.3125 L 10.734375 -4.3125 L 6.953125 -13.53125 L 6.953125 0 L 1.734375 0 L 1.734375 -22.578125 L 8.53125 -22.578125 L 13.109375 -11.203125 L 17.78125 -22.578125 Z M 24.34375 -22.578125 "/></g></g></g><g fill="#ffffff" fill-opacity="1"><g transform="translate(124.317223, 250.42116)"><g><path d="M 5.765625 0 L -0.109375 0 L 8.25 -22.578125 L 14.046875 -22.578125 L 22.171875 0 L 16.34375 0 L 15.15625 -3.78125 L 6.953125 -3.78125 Z M 11.015625 -17.03125 C 10.828125 -16.351562 10.617188 -15.632812 10.390625 -14.875 C 10.160156 -14.125 9.78125 -12.898438 9.25 -11.203125 L 8.3125 -8.203125 L 13.75 -8.203125 L 12.8125 -11.203125 C 12.5 -12.109375 12.1875 -13.070312 11.875 -14.09375 C 11.5625 -15.113281 11.273438 -16.09375 11.015625 -17.03125 Z M 11.015625 -17.03125 "/></g></g></g><g fill="#ffffff" fill-opacity="1"><g transform="translate(146.450003, 250.42116)"><g><path d="M 7.3125 -7.265625 L 7.3125 0 L 1.734375 0 L 1.734375 -22.578125 L 9.96875 -22.578125 C 13.445312 -22.578125 15.914062 -21.988281 17.375 -20.8125 C 18.84375 -19.632812 19.578125 -17.675781 19.578125 -14.9375 C 19.578125 -13.09375 19.1875 -11.585938 18.40625 -10.421875 C 17.632812 -9.253906 16.457031 -8.410156 14.875 -7.890625 L 20.375 0 L 13.6875 0 L 9 -7.265625 Z M 13.9375 -14.9375 C 13.9375 -15.894531 13.644531 -16.566406 13.0625 -16.953125 C 12.488281 -17.335938 11.457031 -17.53125 9.96875 -17.53125 L 7.3125 -17.53125 L 7.3125 -11.765625 L 9.96875 -11.765625 C 11.457031 -11.765625 12.488281 -12 13.0625 -12.46875 C 13.644531 -12.9375 13.9375 -13.757812 13.9375 -14.9375 Z M 13.9375 -14.9375 "/></g></g></g><g fill="#ffffff" fill-opacity="1"><g transform="translate(167.215238, 250.42116)"><g><path d="M 5.765625 0 L -0.109375 0 L 8.25 -22.578125 L 14.046875 -22.578125 L 22.171875 0 L 16.34375 0 L 15.15625 -3.78125 L 6.953125 -3.78125 Z M 11.015625 -17.03125 C 10.828125 -16.351562 10.617188 -15.632812 10.390625 -14.875 C 10.160156 -14.125 9.78125 -12.898438 9.25 -11.203125 L 8.3125 -8.203125 L 13.75 -8.203125 L 12.8125 -11.203125 C 12.5 -12.109375 12.1875 -13.070312 11.875 -14.09375 C 11.5625 -15.113281 11.273438 -16.09375 11.015625 -17.03125 Z M 11.015625 -17.03125 "/></g></g></g><g fill="#ffffff" fill-opacity="1"><g transform="translate(189.348018, 250.42116)"><g><path d="M 18.328125 -22.578125 L 18.328125 -17.53125 L 12.171875 -17.53125 L 12.171875 0 L 6.59375 0 L 6.59375 -17.53125 L 0.4375 -17.53125 L 0.4375 -22.578125 Z M 18.328125 -22.578125 "/></g></g></g><g fill="#ffffff" fill-opacity="1"><g transform="translate(208.097902, 250.42116)"><g><path d="M 7.3125 0 L 1.734375 0 L 1.734375 -22.578125 L 7.3125 -22.578125 L 7.3125 -13.96875 L 15.234375 -13.96875 L 15.234375 -22.578125 L 20.8125 -22.578125 L 20.8125 0 L 15.234375 0 L 15.234375 -8.921875 L 7.3125 -8.921875 Z M 7.3125 0 "/></g></g></g><g fill="#ffffff" fill-opacity="1"><g transform="translate(230.626557, 250.42116)"><g><path d="M 22.21875 -11.296875 C 22.21875 -7.191406 21.378906 -4.222656 19.703125 -2.390625 C 18.035156 -0.554688 15.332031 0.359375 11.59375 0.359375 C 7.675781 0.359375 4.925781 -0.503906 3.34375 -2.234375 C 1.757812 -3.960938 0.96875 -6.984375 0.96875 -11.296875 C 0.96875 -15.398438 1.800781 -18.363281 3.46875 -20.1875 C 5.132812 -22.019531 7.84375 -22.9375 11.59375 -22.9375 C 15.5 -22.9375 18.242188 -22.070312 19.828125 -20.34375 C 21.421875 -18.613281 22.21875 -15.597656 22.21875 -11.296875 Z M 7.3125 -6.484375 C 7.625 -5.878906 8.082031 -5.457031 8.6875 -5.21875 C 9.300781 -4.976562 10.269531 -4.859375 11.59375 -4.859375 C 12.914062 -4.859375 13.878906 -4.976562 14.484375 -5.21875 C 15.097656 -5.457031 15.5625 -5.878906 15.875 -6.484375 C 16.113281 -6.960938 16.285156 -7.582031 16.390625 -8.34375 C 16.503906 -9.113281 16.5625 -10.097656 16.5625 -11.296875 C 16.5625 -12.523438 16.503906 -13.53125 16.390625 -14.3125 C 16.285156 -15.09375 16.113281 -15.722656 15.875 -16.203125 C 15.582031 -16.828125 15.128906 -17.265625 14.515625 -17.515625 C 13.910156 -17.765625 12.9375 -17.890625 11.59375 -17.890625 C 10.25 -17.890625 9.269531 -17.765625 8.65625 -17.515625 C 8.039062 -17.265625 7.59375 -16.828125 7.3125 -16.203125 C 7.070312 -15.722656 6.894531 -15.09375 6.78125 -14.3125 C 6.675781 -13.53125 6.625 -12.523438 6.625 -11.296875 C 6.625 -10.097656 6.675781 -9.113281 6.78125 -8.34375 C 6.894531 -7.582031 7.070312 -6.960938 7.3125 -6.484375 Z M 7.3125 -6.484375 "/></g></g></g><g fill="#ffffff" fill-opacity="1"><g transform="translate(253.803004, 250.42116)"><g><path d="M 21.203125 -22.578125 L 21.203125 0 L 15.875 0 L 6.953125 -13.03125 L 6.953125 0 L 1.734375 0 L 1.734375 -22.578125 L 7.015625 -22.578125 L 15.984375 -9.03125 L 15.984375 -22.578125 Z M 21.203125 -22.578125 "/></g></g></g><g fill="#a7deff" fill-opacity="1"><g transform="translate(145.304657, 271.021153)"><g><path d="M 0.90625 -9.625 L 4.796875 -9.625 C 5.234375 -9.625 5.628906 -9.566406 5.984375 -9.453125 C 6.347656 -9.335938 6.660156 -9.171875 6.921875 -8.953125 C 7.191406 -8.742188 7.398438 -8.472656 7.546875 -8.140625 C 7.691406 -7.816406 7.765625 -7.441406 7.765625 -7.015625 C 7.765625 -6.671875 7.691406 -6.34375 7.546875 -6.03125 C 7.398438 -5.71875 7.195312 -5.441406 6.9375 -5.203125 C 6.675781 -4.972656 6.363281 -4.789062 6 -4.65625 C 5.632812 -4.519531 5.226562 -4.453125 4.78125 -4.453125 L 3.0625 -4.453125 L 3.0625 -1.09375 L 4.03125 -1.09375 L 4.03125 0 L 0.90625 0 L 0.90625 -1.09375 L 1.828125 -1.09375 L 1.828125 -8.53125 L 0.90625 -8.53125 Z M 3.0625 -8.53125 L 3.0625 -5.5 L 4.796875 -5.5 C 5.035156 -5.5 5.253906 -5.53125 5.453125 -5.59375 C 5.660156 -5.65625 5.835938 -5.75 5.984375 -5.875 C 6.128906 -6.007812 6.242188 -6.171875 6.328125 -6.359375 C 6.410156 -6.546875 6.453125 -6.765625 6.453125 -7.015625 C 6.453125 -7.492188 6.304688 -7.863281 6.015625 -8.125 C 5.734375 -8.394531 5.273438 -8.53125 4.640625 -8.53125 Z M 3.0625 -8.53125 "/></g></g></g><g fill="#a7deff" fill-opacity="1"><g transform="translate(154.793471, 271.021153)"><g><path d="M 0.90625 -9.625 L 4.03125 -9.625 L 4.03125 -8.53125 L 3.0625 -8.53125 L 3.0625 -1.09375 L 6.390625 -1.09375 C 6.453125 -1.09375 6.515625 -1.109375 6.578125 -1.140625 C 6.648438 -1.171875 6.710938 -1.210938 6.765625 -1.265625 C 6.828125 -1.316406 6.875 -1.375 6.90625 -1.4375 C 6.9375 -1.5 6.953125 -1.566406 6.953125 -1.640625 L 6.953125 -2.84375 L 8.15625 -2.84375 L 8.15625 0 L 0.90625 0 L 0.90625 -1.09375 L 1.828125 -1.09375 L 1.828125 -8.53125 L 0.90625 -8.53125 Z M 0.90625 -9.625 "/></g></g></g><g fill="#a7deff" fill-opacity="1"><g transform="translate(164.434583, 271.021153)"><g><path d="M 0.71875 -9.625 L 3.828125 -9.625 L 3.828125 -8.53125 L 2.84375 -8.53125 L 2.84375 -4.046875 C 2.84375 -3.503906 2.90625 -3.039062 3.03125 -2.65625 C 3.15625 -2.28125 3.320312 -1.972656 3.53125 -1.734375 C 3.75 -1.503906 4.003906 -1.332031 4.296875 -1.21875 C 4.585938 -1.101562 4.910156 -1.046875 5.265625 -1.046875 C 5.628906 -1.046875 5.960938 -1.09375 6.265625 -1.1875 C 6.566406 -1.289062 6.828125 -1.457031 7.046875 -1.6875 C 7.265625 -1.914062 7.429688 -2.222656 7.546875 -2.609375 C 7.671875 -2.992188 7.734375 -3.472656 7.734375 -4.046875 L 7.734375 -8.53125 L 6.703125 -8.53125 L 6.703125 -9.625 L 9.8125 -9.625 L 9.8125 -8.53125 L 8.953125 -8.53125 L 8.953125 -4.1875 C 8.953125 -3.488281 8.851562 -2.867188 8.65625 -2.328125 C 8.46875 -1.796875 8.207031 -1.347656 7.875 -0.984375 C 7.539062 -0.617188 7.144531 -0.34375 6.6875 -0.15625 C 6.238281 0.03125 5.753906 0.125 5.234375 0.125 C 4.722656 0.125 4.25 0.03125 3.8125 -0.15625 C 3.375 -0.34375 2.988281 -0.613281 2.65625 -0.96875 C 2.332031 -1.332031 2.070312 -1.769531 1.875 -2.28125 C 1.6875 -2.800781 1.59375 -3.394531 1.59375 -4.0625 L 1.59375 -8.53125 L 0.71875 -8.53125 Z M 0.71875 -9.625 "/></g></g></g><g fill="#a7deff" fill-opacity="1"><g transform="translate(175.687514, 271.021153)"><g><path d="M 0.90625 -1.09375 L 1.828125 -1.09375 L 1.828125 -8.40625 L 0.90625 -8.40625 L 0.90625 -9.625 L 3.953125 -9.625 L 7.015625 -1.3125 L 10.09375 -9.625 L 12.984375 -9.625 L 12.984375 -8.40625 L 12.078125 -8.40625 L 12.078125 -1.09375 L 12.984375 -1.09375 L 12.984375 0 L 9.859375 0 L 9.859375 -1.09375 L 10.890625 -1.09375 L 10.890625 -8.484375 L 7.53125 0 L 6.453125 0 L 3.046875 -8.5 L 3.046875 -1.09375 L 4.03125 -1.09375 L 4.03125 0 L 0.90625 0 Z M 0.90625 -1.09375 "/></g></g></g><g fill="#a7deff" fill-opacity="1"><g transform="translate(190.995385, 271.021153)"><g><path d="M 0.90625 -1.09375 L 1.828125 -1.09375 L 1.828125 -8.53125 L 0.90625 -8.53125 L 0.90625 -9.640625 L 5.234375 -9.625 C 5.628906 -9.625 5.992188 -9.550781 6.328125 -9.40625 C 6.671875 -9.257812 6.96875 -9.0625 7.21875 -8.8125 C 7.476562 -8.5625 7.679688 -8.265625 7.828125 -7.921875 C 7.972656 -7.578125 8.046875 -7.207031 8.046875 -6.8125 C 8.046875 -6.40625 7.929688 -6.03125 7.703125 -5.6875 C 7.472656 -5.351562 7.148438 -5.082031 6.734375 -4.875 C 6.941406 -4.757812 7.128906 -4.628906 7.296875 -4.484375 C 7.460938 -4.335938 7.601562 -4.175781 7.71875 -4 C 7.84375 -3.832031 7.9375 -3.648438 8 -3.453125 C 8.0625 -3.265625 8.09375 -3.066406 8.09375 -2.859375 C 8.09375 -2.460938 8.019531 -2.085938 7.875 -1.734375 C 7.726562 -1.390625 7.53125 -1.085938 7.28125 -0.828125 C 7.03125 -0.566406 6.734375 -0.363281 6.390625 -0.21875 C 6.046875 -0.0703125 5.679688 0 5.296875 0 L 0.90625 0 Z M 3.0625 -4.28125 L 3.0625 -1.09375 L 5.3125 -1.09375 C 5.507812 -1.09375 5.691406 -1.140625 5.859375 -1.234375 C 6.035156 -1.335938 6.191406 -1.472656 6.328125 -1.640625 C 6.460938 -1.804688 6.566406 -1.988281 6.640625 -2.1875 C 6.710938 -2.394531 6.75 -2.609375 6.75 -2.828125 C 6.75 -3.015625 6.707031 -3.191406 6.625 -3.359375 C 6.550781 -3.535156 6.445312 -3.691406 6.3125 -3.828125 C 6.1875 -3.960938 6.035156 -4.070312 5.859375 -4.15625 C 5.691406 -4.238281 5.507812 -4.28125 5.3125 -4.28125 Z M 3.0625 -8.53125 L 3.0625 -5.390625 L 5.25 -5.390625 C 5.445312 -5.390625 5.632812 -5.425781 5.8125 -5.5 C 5.988281 -5.582031 6.140625 -5.691406 6.265625 -5.828125 C 6.398438 -5.960938 6.503906 -6.117188 6.578125 -6.296875 C 6.660156 -6.472656 6.703125 -6.65625 6.703125 -6.84375 C 6.703125 -7.050781 6.660156 -7.253906 6.578125 -7.453125 C 6.503906 -7.660156 6.398438 -7.84375 6.265625 -8 C 6.140625 -8.15625 5.988281 -8.28125 5.8125 -8.375 C 5.632812 -8.476562 5.445312 -8.53125 5.25 -8.53125 Z M 3.0625 -8.53125 "/></g></g></g><g fill="#a7deff" fill-opacity="1"><g transform="translate(200.991856, 271.021153)"><g><path d="M 0.90625 -9.625 L 3.984375 -9.625 L 3.984375 -8.53125 L 3.0625 -8.53125 L 3.0625 -1.09375 L 3.984375 -1.09375 L 3.984375 0 L 0.90625 0 L 0.90625 -1.09375 L 1.828125 -1.09375 L 1.828125 -8.53125 L 0.90625 -8.53125 Z M 0.90625 -9.625 "/></g></g></g><g fill="#a7deff" fill-opacity="1"><g transform="translate(207.295101, 271.021153)"><g><path d="M 6.859375 -9.625 L 9.984375 -9.625 L 9.984375 -8.53125 L 9.171875 -8.53125 L 9.171875 0 L 7.546875 0 L 3.0625 -7.984375 L 3.0625 -1.09375 L 4.0625 -1.09375 L 4.0625 0 L 0.9375 0 L 0.9375 -1.09375 L 1.828125 -1.09375 L 1.828125 -8.53125 L 0.90625 -8.53125 L 0.90625 -9.640625 L 3.5 -9.640625 L 7.890625 -1.734375 L 7.9375 -2.03125 L 7.9375 -8.53125 L 6.859375 -8.53125 Z M 6.859375 -9.625 "/></g></g></g><g fill="#a7deff" fill-opacity="1"><g transform="translate(219.017616, 271.021153)"><g><path d="M 8.328125 0.03125 L 8.328125 -1.890625 C 8.171875 -1.554688 7.972656 -1.265625 7.734375 -1.015625 C 7.492188 -0.765625 7.222656 -0.5625 6.921875 -0.40625 C 6.628906 -0.25 6.3125 -0.128906 5.96875 -0.046875 C 5.632812 0.0351562 5.296875 0.078125 4.953125 0.078125 C 4.328125 0.078125 3.75 -0.0234375 3.21875 -0.234375 C 2.6875 -0.441406 2.207031 -0.773438 1.78125 -1.234375 C 1.351562 -1.691406 1.023438 -2.234375 0.796875 -2.859375 C 0.566406 -3.484375 0.453125 -4.140625 0.453125 -4.828125 C 0.453125 -5.515625 0.566406 -6.160156 0.796875 -6.765625 C 1.023438 -7.378906 1.34375 -7.910156 1.75 -8.359375 C 2.15625 -8.816406 2.640625 -9.171875 3.203125 -9.421875 C 3.773438 -9.679688 4.390625 -9.8125 5.046875 -9.8125 C 5.648438 -9.8125 6.171875 -9.722656 6.609375 -9.546875 C 7.054688 -9.378906 7.429688 -9.171875 7.734375 -8.921875 C 8.046875 -8.671875 8.296875 -8.4375 8.484375 -8.21875 L 9.109375 -8.21875 L 9.109375 -7.078125 L 7.734375 -7.078125 C 7.453125 -7.566406 7.078125 -7.945312 6.609375 -8.21875 C 6.140625 -8.5 5.617188 -8.640625 5.046875 -8.640625 C 4.554688 -8.640625 4.109375 -8.535156 3.703125 -8.328125 C 3.296875 -8.117188 2.945312 -7.835938 2.65625 -7.484375 C 2.363281 -7.128906 2.132812 -6.722656 1.96875 -6.265625 C 1.8125 -5.816406 1.734375 -5.335938 1.734375 -4.828125 C 1.734375 -4.265625 1.820312 -3.738281 2 -3.25 C 2.175781 -2.769531 2.398438 -2.378906 2.671875 -2.078125 C 2.953125 -1.773438 3.296875 -1.523438 3.703125 -1.328125 C 4.109375 -1.140625 4.554688 -1.046875 5.046875 -1.046875 C 5.859375 -1.046875 6.523438 -1.242188 7.046875 -1.640625 C 7.566406 -2.035156 7.929688 -2.648438 8.140625 -3.484375 L 5.453125 -3.484375 L 5.453125 -4.578125 L 9.515625 -4.578125 L 9.515625 0.03125 Z M 8.328125 0.03125 "/></g></g></g></svg>